<mxfile host="Electron" modified="2023-10-18T14:23:33.088Z" agent="Mozilla/5.0 (Macintosh; Intel Mac OS X 10_15_7) AppleWebKit/537.36 (KHTML, like Gecko) draw.io/22.0.2 Chrome/114.0.5735.289 Electron/25.8.4 Safari/537.36" etag="XyWWYX7KsqyIINkG7pl9" version="22.0.2" type="device">
  <diagram name="Page-1" id="E3KGRp-HmKkl-OzyrYd4">
    <mxGraphModel dx="1272" dy="801" grid="1" gridSize="7" guides="1" tooltips="1" connect="1" arrows="1" fold="1" page="1" pageScale="1" pageWidth="827" pageHeight="1169" math="0" shadow="0">
      <root>
        <mxCell id="0" />
        <mxCell id="1" parent="0" />
        <mxCell id="-ItEni8HR4KpnupZRwqO-23" value="&lt;div style=&quot;font-size: 13px;&quot;&gt;&lt;span style=&quot;background-color: initial;&quot;&gt;&lt;font style=&quot;font-size: 13px;&quot;&gt;&lt;br&gt;&lt;/font&gt;&lt;/span&gt;&lt;/div&gt;&lt;div style=&quot;font-size: 13px;&quot;&gt;&lt;span style=&quot;background-color: initial;&quot;&gt;&lt;font style=&quot;font-size: 13px;&quot;&gt;&lt;br&gt;&lt;/font&gt;&lt;/span&gt;&lt;/div&gt;&lt;div style=&quot;font-size: 13px;&quot;&gt;&lt;span style=&quot;background-color: initial;&quot;&gt;&lt;font style=&quot;font-size: 13px;&quot;&gt;&lt;br&gt;&lt;/font&gt;&lt;/span&gt;&lt;/div&gt;&lt;div style=&quot;font-size: 13px;&quot;&gt;&lt;span style=&quot;background-color: initial;&quot;&gt;&lt;font style=&quot;font-size: 13px;&quot;&gt;&lt;br&gt;&lt;/font&gt;&lt;/span&gt;&lt;/div&gt;&lt;div style=&quot;font-size: 13px;&quot;&gt;&lt;span style=&quot;background-color: initial;&quot;&gt;&lt;font style=&quot;font-size: 13px;&quot;&gt;&lt;br&gt;&lt;/font&gt;&lt;/span&gt;&lt;/div&gt;&lt;div style=&quot;font-size: 13px;&quot;&gt;&lt;span style=&quot;background-color: initial;&quot;&gt;&lt;font style=&quot;font-size: 13px;&quot;&gt;&lt;br&gt;&lt;/font&gt;&lt;/span&gt;&lt;/div&gt;&lt;div style=&quot;font-size: 13px;&quot;&gt;&lt;br&gt;&lt;/div&gt;&lt;div style=&quot;font-size: 13px;&quot;&gt;&lt;span style=&quot;background-color: initial;&quot;&gt;&lt;font style=&quot;font-size: 13px;&quot;&gt;Control&lt;/font&gt;&lt;/span&gt;&lt;/div&gt;" style="rounded=0;whiteSpace=wrap;html=1;fillColor=#d5e8d4;strokeColor=#82b366;align=center;" vertex="1" parent="1">
          <mxGeometry x="277" y="357" width="136" height="126" as="geometry" />
        </mxCell>
        <mxCell id="-ItEni8HR4KpnupZRwqO-14" style="edgeStyle=orthogonalEdgeStyle;rounded=0;orthogonalLoop=1;jettySize=auto;html=1;exitX=0.5;exitY=1;exitDx=0;exitDy=0;entryX=0.5;entryY=0;entryDx=0;entryDy=0;" edge="1" parent="1" source="-ItEni8HR4KpnupZRwqO-2" target="-ItEni8HR4KpnupZRwqO-13">
          <mxGeometry relative="1" as="geometry" />
        </mxCell>
        <mxCell id="-ItEni8HR4KpnupZRwqO-2" value="&lt;b&gt;&lt;font style=&quot;font-size: 14px;&quot;&gt;Raspberry Pi&lt;/font&gt;&lt;/b&gt;" style="whiteSpace=wrap;html=1;aspect=fixed;" vertex="1" parent="1">
          <mxGeometry x="290" y="240" width="110" height="110" as="geometry" />
        </mxCell>
        <mxCell id="-ItEni8HR4KpnupZRwqO-3" value="Temperature&lt;br&gt;Sensor" style="rounded=0;whiteSpace=wrap;html=1;" vertex="1" parent="1">
          <mxGeometry x="463" y="248" width="99" height="39" as="geometry" />
        </mxCell>
        <mxCell id="-ItEni8HR4KpnupZRwqO-6" style="edgeStyle=orthogonalEdgeStyle;rounded=0;orthogonalLoop=1;jettySize=auto;html=1;exitX=0;exitY=0.5;exitDx=0;exitDy=0;entryX=1;entryY=0.75;entryDx=0;entryDy=0;" edge="1" parent="1" source="-ItEni8HR4KpnupZRwqO-25" target="-ItEni8HR4KpnupZRwqO-2">
          <mxGeometry relative="1" as="geometry">
            <mxPoint x="462" y="323" as="sourcePoint" />
          </mxGeometry>
        </mxCell>
        <mxCell id="-ItEni8HR4KpnupZRwqO-7" value="Ethernet" style="rounded=0;whiteSpace=wrap;html=1;" vertex="1" parent="1">
          <mxGeometry x="298.5" y="154" width="93" height="42" as="geometry" />
        </mxCell>
        <mxCell id="-ItEni8HR4KpnupZRwqO-11" style="edgeStyle=orthogonalEdgeStyle;rounded=0;orthogonalLoop=1;jettySize=auto;html=1;exitX=0.25;exitY=1;exitDx=0;exitDy=0;entryX=0.29;entryY=0.005;entryDx=0;entryDy=0;entryPerimeter=0;" edge="1" parent="1" source="-ItEni8HR4KpnupZRwqO-7" target="-ItEni8HR4KpnupZRwqO-2">
          <mxGeometry relative="1" as="geometry" />
        </mxCell>
        <mxCell id="-ItEni8HR4KpnupZRwqO-12" style="edgeStyle=orthogonalEdgeStyle;rounded=0;orthogonalLoop=1;jettySize=auto;html=1;exitX=0.75;exitY=0;exitDx=0;exitDy=0;entryX=0.796;entryY=1.005;entryDx=0;entryDy=0;entryPerimeter=0;" edge="1" parent="1" source="-ItEni8HR4KpnupZRwqO-2" target="-ItEni8HR4KpnupZRwqO-7">
          <mxGeometry relative="1" as="geometry" />
        </mxCell>
        <mxCell id="-ItEni8HR4KpnupZRwqO-17" style="edgeStyle=orthogonalEdgeStyle;rounded=0;orthogonalLoop=1;jettySize=auto;html=1;exitX=0.5;exitY=1;exitDx=0;exitDy=0;" edge="1" parent="1" source="-ItEni8HR4KpnupZRwqO-13" target="-ItEni8HR4KpnupZRwqO-16">
          <mxGeometry relative="1" as="geometry" />
        </mxCell>
        <mxCell id="-ItEni8HR4KpnupZRwqO-13" value="Relay" style="rounded=0;whiteSpace=wrap;html=1;" vertex="1" parent="1">
          <mxGeometry x="306.5" y="372" width="77" height="34" as="geometry" />
        </mxCell>
        <mxCell id="-ItEni8HR4KpnupZRwqO-16" value="Valve" style="rounded=0;whiteSpace=wrap;html=1;" vertex="1" parent="1">
          <mxGeometry x="306.5" y="426" width="77" height="34" as="geometry" />
        </mxCell>
        <mxCell id="-ItEni8HR4KpnupZRwqO-19" style="edgeStyle=orthogonalEdgeStyle;rounded=0;orthogonalLoop=1;jettySize=auto;html=1;exitX=1;exitY=0.5;exitDx=0;exitDy=0;entryX=0;entryY=0.5;entryDx=0;entryDy=0;" edge="1" parent="1" source="-ItEni8HR4KpnupZRwqO-18" target="-ItEni8HR4KpnupZRwqO-2">
          <mxGeometry relative="1" as="geometry" />
        </mxCell>
        <mxCell id="-ItEni8HR4KpnupZRwqO-18" value="Power" style="rounded=0;whiteSpace=wrap;html=1;" vertex="1" parent="1">
          <mxGeometry x="128" y="272" width="90" height="46" as="geometry" />
        </mxCell>
        <mxCell id="-ItEni8HR4KpnupZRwqO-24" style="edgeStyle=orthogonalEdgeStyle;rounded=0;orthogonalLoop=1;jettySize=auto;html=1;exitX=0;exitY=0.5;exitDx=0;exitDy=0;entryX=1;entryY=0.25;entryDx=0;entryDy=0;" edge="1" parent="1" source="-ItEni8HR4KpnupZRwqO-3" target="-ItEni8HR4KpnupZRwqO-2">
          <mxGeometry relative="1" as="geometry" />
        </mxCell>
        <mxCell id="-ItEni8HR4KpnupZRwqO-25" value="Hygrometer&lt;br&gt;Sensor" style="rounded=0;whiteSpace=wrap;html=1;" vertex="1" parent="1">
          <mxGeometry x="463" y="303" width="99" height="39" as="geometry" />
        </mxCell>
      </root>
    </mxGraphModel>
  </diagram>
</mxfile>
